<svg xmlns="http://www.w3.org/2000/svg" xmlns:xlink="http://www.w3.org/1999/xlink" width="1200" zoomAndPan="magnify" viewBox="0 0 900 899.99999" height="1200" preserveAspectRatio="xMidYMid meet" version="1.0"><defs><clipPath id="ab5ae2d142"><path d="M 401 119.355469 L 497 119.355469 L 497 323 L 401 323 Z M 401 119.355469 " clip-rule="nonzero"/></clipPath><clipPath id="72136ee567"><path d="M 157.875 260 L 347 260 L 347 410 L 157.875 410 Z M 157.875 260 " clip-rule="nonzero"/></clipPath><clipPath id="843a5f9dee"><path d="M 157.875 401 L 741.03125 401 L 741.03125 638 L 157.875 638 Z M 157.875 401 " clip-rule="nonzero"/></clipPath><clipPath id="5154303675"><path d="M 393 630 L 506 630 L 506 779.714844 L 393 779.714844 Z M 393 630 " clip-rule="nonzero"/></clipPath></defs><rect x="-90" width="1080" fill="#ffffff" y="-89.999999" height="1079.999988" fill-opacity="1"/><rect x="-90" width="1080" fill="#211951" y="-89.999999" height="1079.999988" fill-opacity="1"/><g clip-path="url(#ab5ae2d142)"><path fill="#a7f515" d="M 449.421875 322.152344 C 475.710938 322.152344 496.945312 300.894531 496.945312 274.574219 L 496.945312 166.933594 C 496.945312 153.773438 491.554688 141.964844 483.128906 133.527344 C 474.363281 124.753906 462.566406 119.355469 449.421875 119.355469 C 423.132812 119.355469 401.898438 140.613281 401.898438 166.933594 L 401.898438 274.574219 C 401.898438 300.894531 423.132812 322.152344 449.421875 322.152344 Z M 449.421875 322.152344 " fill-opacity="1" fill-rule="nonzero"/></g><path fill="#a7f515" d="M 623.675781 402.800781 L 717.039062 348.8125 C 739.621094 335.652344 747.375 306.632812 734.226562 284.023438 C 732.207031 280.3125 729.511719 276.9375 726.8125 274.238281 C 711.984375 259.390625 688.726562 255.679688 669.515625 266.816406 L 576.152344 320.804688 C 553.570312 333.964844 545.820312 362.984375 558.964844 385.589844 C 572.109375 408.199219 601.09375 415.960938 623.675781 402.800781 Z M 623.675781 402.800781 " fill-opacity="1" fill-rule="nonzero"/><g clip-path="url(#72136ee567)"><path fill="#a7f515" d="M 181.46875 348.8125 L 275.167969 403.136719 C 297.75 416.296875 326.734375 408.535156 339.882812 385.929688 C 351.003906 367.03125 347.296875 343.414062 332.464844 328.566406 C 329.769531 325.867188 326.398438 323.167969 322.691406 321.140625 L 228.992188 266.8125 C 206.410156 253.65625 177.425781 261.414062 164.277344 284.023438 C 151.132812 306.632812 158.886719 335.652344 181.46875 348.8125 Z M 181.46875 348.8125 " fill-opacity="1" fill-rule="nonzero"/></g><g clip-path="url(#843a5f9dee)"><path fill="#a7f515" d="M 717.039062 549.246094 L 473.015625 407.863281 C 473.015625 407.863281 472.34375 407.863281 471.667969 407.1875 C 469.644531 406.175781 467.960938 405.5 465.9375 404.488281 C 465.265625 404.488281 464.253906 403.8125 463.578125 403.476562 C 460.882812 402.460938 458.183594 402.125 455.488281 401.449219 C 454.816406 401.449219 454.140625 401.449219 453.46875 401.449219 C 451.445312 401.449219 449.085938 401.449219 447.0625 401.449219 C 446.050781 401.449219 445.039062 401.449219 444.027344 401.449219 C 442.007812 401.449219 440.320312 401.789062 438.300781 402.460938 C 437.289062 402.460938 436.277344 403.136719 435.265625 403.136719 C 433.582031 403.8125 431.894531 404.152344 430.210938 405.164062 C 429.199219 405.5 428.1875 406.175781 427.175781 406.511719 C 426.503906 406.511719 426.164062 406.851562 425.492188 407.1875 L 181.46875 548.910156 C 158.886719 562.070312 151.132812 591.089844 164.277344 613.695312 C 177.425781 636.304688 206.410156 644.066406 228.992188 630.90625 L 449.421875 503.355469 L 669.851562 630.90625 C 692.433594 644.066406 721.421875 636.304688 734.566406 613.695312 C 745.6875 594.800781 741.980469 571.179688 727.152344 556.332031 C 724.117188 553.296875 721.085938 550.933594 717.375 548.910156 Z M 717.039062 549.246094 " fill-opacity="1" fill-rule="nonzero"/></g><g clip-path="url(#5154303675)"><path fill="#a7f515" d="M 449.421875 630.230469 C 418.75 630.230469 393.808594 654.863281 393.136719 685.570312 L 393.136719 723.363281 C 393.136719 754.40625 418.414062 779.714844 449.421875 779.714844 C 480.429688 779.714844 505.710938 754.40625 505.710938 723.363281 L 505.710938 685.90625 C 505.035156 655.203125 480.09375 630.566406 449.421875 630.566406 Z M 449.421875 630.230469 " fill-opacity="1" fill-rule="nonzero"/></g></svg>